<svg xmlns="http://www.w3.org/2000/svg" xmlns:xlink="http://www.w3.org/1999/xlink" width="76" height="76" viewBox="0 0 76 76">
  <defs>
    <linearGradient id="linear-gradient" x1="0.118" y1="0.881" x2="1" y2="0.006" gradientUnits="objectBoundingBox">
      <stop offset="0" stop-color="#7159c1"/>
      <stop offset="1" stop-color="#00f5ff"/>
    </linearGradient>
  </defs>
  <g id="start-up" transform="translate(-64.001 -32.002)">
    <path id="União_1" data-name="União 1" d="M37.688,75.761a2.221,2.221,0,0,1-1.2-2.314c.734-4.964.94-6.664.629-8.415a127.147,127.147,0,0,0,14.072-9.147c1.106,2,.248,8.287-4.628,13.164l-6.3,6.3a2.22,2.22,0,0,1-2.575.414ZM9.5,66.53a2.226,2.226,0,0,1-.429-2.544c1.443-2.977,4.654-8.019,11.765-15.13,2.126-2.125,6.651-3.568,8.26-1.958h0c1.527,1.528.373,5.917-1.964,8.256-7.2,7.2-12.175,10.391-15.086,11.8A2.228,2.228,0,0,1,9.5,66.53Zm15.42-1.85-.738-.737c1.854-1.575,3.872-3.412,6.1-5.64.158-.158.233-.319.378-.477l3.668,3.668c-3.85,2.144-5.664,3-6.817,3.592a2.225,2.225,0,0,1-2.592-.406Zm8.2-10.689c1.393-3.429,1.769-7.6-.878-10.243S25.43,41.473,22,42.867l-5.025-5.025C27.086,21.02,39.885,9.045,53.256,3.561a23.4,23.4,0,0,0,6.693,12.476,23.287,23.287,0,0,0,12.78,6.7C66.322,39.09,51.253,51.379,38.31,59.18Zm7.936-34.8a11.145,11.145,0,1,0,7.872-3.256A11.145,11.145,0,0,0,41.056,19.186ZM11.509,51.273a2.229,2.229,0,0,1-.415-2.574c.34-.674,1.527-3.19,3.564-6.873l3.5,3.5c-.158.145-.319.221-.477.378-2.224,2.224-4.057,4.246-5.63,6.111ZM.3,38.63a2.225,2.225,0,0,1,.354-2.688l6.3-6.3c5.356-5.356,11.6-6.03,13.485-4.819a119.55,119.55,0,0,0-9.217,14.062c-2.016-.517-5.011-.131-8.415.781A2.226,2.226,0,0,1,.3,38.63ZM44.2,31.781a6.687,6.687,0,1,1,4.723,1.953A6.687,6.687,0,0,1,44.2,31.781ZM63.1,12.888A18.7,18.7,0,0,1,57.56,2.012,44.033,44.033,0,0,1,73.814.118a2.222,2.222,0,0,1,2.054,2.054,46.028,46.028,0,0,1-1.682,16.245A18.628,18.628,0,0,1,63.1,12.888Z" transform="translate(64.001 32.002)" fill="url(#linear-gradient)"/>
  </g>
</svg>
